<svg xmlns="http://www.w3.org/2000/svg" width="18" height="18" viewBox="0 0 18 18">
    <g fill="#7A8491" fill-rule="evenodd">
        <path fill-rule="nonzero" d="M9 0C4.038 0 0 4.037 0 9s4.038 9 9 9 9-4.037 9-9-4.038-9-9-9zm0 17.308C4.42 17.308.692 13.58.692 9 .692 4.42 4.42.692 9 .692c4.58 0 8.308 3.727 8.308 8.308 0 4.58-3.727 8.308-8.308 8.308z"/>
        <path d="M12.276 5.724a.337.337 0 0 0-.477 0L9 8.523 6.201 5.724a.337.337 0 1 0-.477.477L8.523 9l-2.799 2.799a.337.337 0 1 0 .477.477L9 9.477l2.799 2.8a.337.337 0 0 0 .477 0 .337.337 0 0 0 0-.478L9.477 9l2.799-2.799a.337.337 0 0 0 0-.477z"/>
    </g>
</svg>
