<svg xmlns="http://www.w3.org/2000/svg" width="28" height="20" viewBox="0 0 28 20">
    <g fill="#7A8491" fill-rule="evenodd">
        <path d="M26.869 8.838H1.131C.506 8.838 0 9.358 0 10c0 .642.506 1.162 1.131 1.162h25.738c.625 0 1.131-.52 1.131-1.162 0-.642-.506-1.162-1.131-1.162zM26.869.025H1.131C.506.025 0 .545 0 1.187c0 .641.506 1.161 1.131 1.161h25.738c.625 0 1.131-.52 1.131-1.161 0-.642-.506-1.162-1.131-1.162zM26.869 17.652H1.131c-.625 0-1.131.52-1.131 1.161 0 .642.506 1.162 1.131 1.162h25.738c.625 0 1.131-.52 1.131-1.162 0-.641-.506-1.161-1.131-1.161z"/>
    </g>
</svg>
