<svg xmlns="http://www.w3.org/2000/svg" width="46" height="38" viewBox="0 0 46 38">
    <path fill="#003BDD" fill-rule="nonzero" d="M38.038 31.304v4.04c0 1.115.852 2.02 1.902 2.02h3.804c1.05 0 1.902-.905 1.902-2.02v-6.06c-.007-6.131-4.686-11.1-10.46-11.107H30.43c-.525 0-.951-.452-.951-1.01v-1.01c1.575 0 2.853-1.356 2.853-3.03 0-1.672-1.278-3.029-2.853-3.029h-2.853v-2.02a2.77 2.77 0 0 0 2.111-1.009h7.398c1.576 0 2.853-1.356 2.853-3.03 0-1.672-1.277-3.029-2.853-3.029h-7.398A2.769 2.769 0 0 0 26.627 0h-7.608a2.769 2.769 0 0 0-2.111 1.01H9.51c-1.576 0-2.853 1.357-2.853 3.03 0 1.673 1.277 3.029 2.853 3.029h7.398a2.77 2.77 0 0 0 2.111 1.01v2.02h-2.853c-1.575 0-2.853 1.356-2.853 3.029 0 1.673 1.278 3.03 2.853 3.03v1.009c0 .558-.425 1.01-.95 1.01H7.607v-1.01c0-1.115-.852-2.02-1.902-2.02H.95c-.525 0-.951.453-.951 1.01v14.137c0 .558.426 1.01.951 1.01h4.755c1.05 0 1.902-.904 1.902-2.02v-1.01h5.603c.45.014.882.2 1.213.525 2.383 2.078 5.321 3.308 8.399 3.515 3.077-.207 6.015-1.436 8.398-3.514a1.804 1.804 0 0 1 1.214-.525h2.75c1.576 0 2.853 1.356 2.853 3.03zM29.48 3.03h6.656c.526 0 .951.452.951 1.01 0 .557-.425 1.01-.95 1.01H29.48V3.03zM16.166 5.05H9.51c-.526 0-.951-.453-.951-1.01 0-.558.425-1.01.95-1.01h6.657v2.02zM1.902 29.284V17.167h3.804v12.118H1.902zM18.068 5.049V3.03c0-.557.426-1.009.951-1.009h7.608c.525 0 .95.452.95 1.01v2.02c0 .557-.425 1.01-.95 1.01h-7.608c-.525 0-.95-.453-.95-1.01zm6.657 3.03v2.02h-3.804v-2.02h3.804zm-9.51 5.049c0-.558.426-1.01.951-1.01H29.48c.525 0 .95.452.95 1.01 0 .557-.425 1.01-.95 1.01H16.166c-.525 0-.95-.453-.95-1.01zm14.748 14.156c-2.03 1.761-4.525 2.812-7.14 3.01-2.616-.198-5.11-1.25-7.14-3.01a3.638 3.638 0 0 0-2.472-1.029H7.608v-6.059h7.607c1.576 0 2.853-1.356 2.853-3.029v-1.01h9.51v1.01c0 1.673 1.277 3.03 2.853 3.03h4.755c4.724.005 8.553 4.07 8.558 9.088v6.058H39.94v-4.039c-.003-2.787-2.13-5.045-4.754-5.049h-2.75a3.638 3.638 0 0 0-2.473 1.03z"/>
</svg>
