<svg xmlns="http://www.w3.org/2000/svg" width="48" height="48" viewBox="0 0 48 48">
    <g fill="#003BDD" fill-rule="evenodd">
        <path d="M11.641 14c1.53 0 2.277-1.347 2.88-2.43.56-1 .906-1.57 1.565-1.57.66 0 1.008.567 1.565 1.57.6 1.082 1.349 2.43 2.88 2.43 1.532 0 2.279-1.348 2.88-2.43.56-1 .904-1.57 1.564-1.57s1.008.567 1.565 1.57c.601 1.082 1.35 2.43 2.88 2.43 1.53 0 2.277-1.348 2.88-2.43.56-1 .904-1.57 1.563-1.57.66 0 1.009.567 1.567 1.57.601 1.083 1.35 2.43 2.88 2.43 1.53 0 2.279-1.347 2.88-2.43.56-1 .905-1.57 1.568-1.57.662 0 1.01.567 1.567 1.57C44.92 12.653 45.669 14 47.2 14c.442 0 .8-.448.8-1s-.358-1-.8-1c-.662 0-1.01-.567-1.567-1.57C45.03 9.347 44.283 8 42.753 8c-1.53 0-2.28 1.347-2.88 2.43-.56 1-.906 1.57-1.567 1.57-.662 0-1.01-.567-1.566-1.57C36.138 9.348 35.39 8 33.86 8c-1.53 0-2.276 1.347-2.88 2.43-.56 1-.904 1.57-1.564 1.57s-1.01-.567-1.566-1.57C27.25 9.347 26.5 8 24.97 8c-1.53 0-2.277 1.347-2.88 2.43-.56 1-.904 1.57-1.564 1.57s-1.009-.567-1.565-1.57C18.36 9.347 17.612 8 16.08 8s-2.278 1.348-2.88 2.43c-.56 1-.904 1.57-1.564 1.57s-1.01-.566-1.568-1.568a6.474 6.474 0 0 0-1.335-1.82C6.73 3.53 4.255 0 .8 0 .358 0 0 .448 0 1s.358 1 .8 1c2.76 0 4.86 3.177 6.634 7.793.175.454.346.924.515 1.406l.072.2c.173.5.343 1.01.51 1.534l.045.137c.176.556.35 1.123.522 1.7l.007.021c.467 1.577.917 3.232 1.36 4.91.375 1.437.746 2.894 1.114 4.357l.061.239c2.754 10.922 5.6 22.194 11.205 23.56.187.045.377.08.57.1.194.02.386.043.585.043h23.2c.442 0 .8-.448.8-1s-.358-1-.8-1H24a3.53 3.53 0 0 1-.95-.13 4.4 4.4 0 0 1-1.57-.847 7.947 7.947 0 0 1-.983-.966c-3.134-3.7-5.26-12.135-7.334-20.358-.311-1.233-.623-2.47-.94-3.7l-.017-.067c.996-.362 1.83-1.216 2.313-2.364.56-1 .905-1.57 1.565-1.57.66 0 1.007.567 1.565 1.57.6 1.082 1.348 2.43 2.88 2.43 1.531 0 2.278-1.348 2.88-2.43.56-1 .904-1.57 1.564-1.57s1.008.567 1.565 1.57c.601 1.082 1.35 2.43 2.88 2.43 1.53 0 2.276-1.348 2.88-2.43.56-1 .904-1.57 1.563-1.57.659 0 1.008.567 1.567 1.57.6 1.083 1.35 2.43 2.879 2.43 1.53 0 2.28-1.347 2.88-2.43.56-1 .906-1.57 1.568-1.57s1.01.567 1.567 1.57C44.92 18.653 45.67 20 47.2 20c.442 0 .8-.448.8-1s-.358-1-.8-1c-.662 0-1.01-.567-1.567-1.57-.602-1.083-1.35-2.43-2.88-2.43-1.53 0-2.28 1.347-2.88 2.43-.56 1-.906 1.57-1.567 1.57-.662 0-1.01-.567-1.566-1.57-.602-1.082-1.35-2.43-2.88-2.43-1.53 0-2.276 1.347-2.88 2.43-.56 1-.904 1.57-1.564 1.57s-1.01-.567-1.566-1.57C27.25 15.347 26.5 14 24.97 14c-1.53 0-2.277 1.347-2.88 2.43-.56 1-.904 1.57-1.564 1.57s-1.009-.567-1.565-1.57C18.36 15.347 17.612 14 16.08 14s-2.278 1.348-2.88 2.43c-.541.973-.889 1.525-1.512 1.558a141.598 141.598 0 0 0-1.138-4.042c-.024-.082-.048-.169-.073-.251.365.207.763.311 1.163.305z"/>
        <path d="M33.6 33c.442 0 .8-.448.8-1v-5.586l1.834 2.293c.314.379.813.373 1.122-.012.308-.386.313-1.01.01-1.402l-3.2-4a.8.8 0 0 0-.261-.217.653.653 0 0 0-.611 0 .804.804 0 0 0-.261.217l-3.2 4c-.303.393-.299 1.016.01 1.402.308.385.807.39 1.121.012l1.836-2.293V32c0 .552.358 1 .8 1z"/>
    </g>
</svg>
