<svg xmlns="http://www.w3.org/2000/svg" width="48" height="48" viewBox="0 0 48 48">
    <g fill="#003BDD" fill-rule="nonzero">
        <path d="M40.806 30.674a1.103 1.103 0 0 0-1.502 0l-4.812 4.57c-3.04 2.932-3.04 7.637 0 10.567l.012.012c1.494 1.382 3.498 2.155 5.584 2.153 3.166-.022 6.009-1.844 7.216-4.622 1.207-2.78.543-5.974-1.685-8.11l-4.813-4.57zm3.31 13.712c-2.2 2.09-5.846 2.086-8.13-.006-2.195-2.092-2.193-5.62.007-7.71l4.062-3.856 4.062 3.857c2.202 2.09 2.202 5.624 0 7.715zM37.588 22.953L21.589 7.76V5.52C21.575 2.466 18.966 0 15.752 0c-3.214 0-5.824 2.467-5.837 5.52v8.483L2.44 21.099c-3.2 3.046-3.2 7.977 0 11.023l7.692 7.305c3.208 3.039 8.4 3.039 11.609 0l15.846-15.048a.973.973 0 0 0 0-1.426zM20.34 20.081c1.331 0 2.41 1.025 2.41 2.289 0 1.264-1.079 2.29-2.41 2.29-1.332 0-2.41-1.026-2.41-2.29.001-1.263 1.08-2.287 2.41-2.289zM12.038 5.52c.01-1.94 1.67-3.508 3.714-3.508 2.043 0 3.702 1.568 3.713 3.508v.322a1.103 1.103 0 0 0-1.178.21l-6.249 5.934V5.52zM20.24 38c-2.378 2.253-6.227 2.253-8.605 0l-7.692-7.304c-2.372-2.258-2.372-5.913 0-8.171L19.038 8.19l.427.405v9.55c-2.255.42-3.823 2.376-3.649 4.552.174 2.176 2.034 3.885 4.33 3.978 2.297.092 4.303-1.46 4.671-3.614.368-2.155-1.019-4.23-3.228-4.83v-7.62l13.746 13.054L20.24 38z"/>
    </g>
</svg>
