<svg xmlns="http://www.w3.org/2000/svg" width="48" height="48" viewBox="0 0 48 48">
    <g fill="#003BDD" fill-rule="nonzero">
        <path d="M21.773 5.84a.863.863 0 0 0-.871.854v1.302H14.49V1.708h1.326a.863.863 0 0 0 .871-.854.863.863 0 0 0-.87-.854H.918a.863.863 0 0 0-.872.854c0 .472.39.855.871.855h1.327v12.29c0 3.31 2.746 6.004 6.123 6.004h12.534v1.3c0 .471.39.854.87.854a.863.863 0 0 0 .872-.854V6.694a.863.863 0 0 0-.871-.854zM8.368 18.294c-2.416 0-4.38-1.927-4.38-4.295V1.709h8.76v7.14c0 .473.39.855.87.855h7.284v8.59H8.368zM47.114 26.316h-1.327v-12.29c0-3.31-2.747-6.004-6.123-6.004H27.13v-1.3a.863.863 0 0 0-.87-.854.863.863 0 0 0-.872.854V21.33c0 .471.39.854.871.854a.863.863 0 0 0 .871-.854v-1.3h6.412v6.286h-1.326a.863.863 0 0 0-.871.855c0 .471.39.854.87.854h14.898a.863.863 0 0 0 .871-.854.863.863 0 0 0-.87-.855zm-12.7-7.995H27.13V9.73h12.535c2.415 0 4.38 1.926 4.38 4.294v12.291h-8.76v-7.14a.863.863 0 0 0-.871-.855zM39.665 30.69a.876.876 0 0 0-.717.369c-.553.785-5.405 7.76-5.405 10.783 0 3.31 2.746 6.003 6.122 6.003s6.122-2.693 6.122-6.003c0-3.023-4.852-9.998-5.405-10.783a.877.877 0 0 0-.717-.369zm0 15.446c-2.415 0-4.38-1.926-4.38-4.294 0-1.662 2.45-5.88 4.38-8.766 1.93 2.886 4.38 7.103 4.38 8.766 0 2.368-1.965 4.294-4.38 4.294z"/>
    </g>
</svg>
