<svg xmlns="http://www.w3.org/2000/svg" width="48" height="48" viewBox="0 0 48 48">
    <g fill="#003BDD" fill-rule="evenodd">
        <path d="M32.657 30.181l-.281 1.523c7.163 1.323 10.979 4.02 10.979 5.457 0 2.127-7.538 6.194-19.355 6.194S4.645 39.288 4.645 37.16c0-1.437 3.816-4.134 10.98-5.457l-.281-1.523c-7.097 1.312-12.247 4.247-12.247 6.98 0 3.655 8.94 7.742 20.903 7.742 11.964 0 20.903-4.087 20.903-7.742 0-2.733-5.15-5.668-12.246-6.98z"/>
        <path d="M32.647 27.036l-.262 1.526c8.413 1.437 14.067 4.893 14.067 8.6 0 5.035-10.282 9.29-22.452 9.29-12.17 0-22.452-4.255-22.452-9.29 0-3.707 5.654-7.163 14.067-8.6l-.262-1.526C6.026 28.629 0 32.604 0 37.16 0 43.24 10.542 48 24 48s24-4.76 24-10.839c0-4.557-6.026-8.532-15.353-10.125z"/>
        <path fill-rule="nonzero" d="M24 0a4.65 4.65 0 0 0-4.645 4.645A4.65 4.65 0 0 0 24 9.29a4.65 4.65 0 0 0 4.645-4.645A4.65 4.65 0 0 0 24 0zm0 7.742a3.1 3.1 0 0 1-3.097-3.097A3.1 3.1 0 0 1 24 1.548a3.1 3.1 0 0 1 3.097 3.097A3.1 3.1 0 0 1 24 7.742z"/>
        <path d="M24 2.323V3.87c.427 0 .774.347.774.774h1.549A2.325 2.325 0 0 0 24 2.323z"/>
        <path fill-rule="nonzero" d="M24 12.387a2.325 2.325 0 0 0-2.323 2.323A2.325 2.325 0 0 0 24 17.032a2.325 2.325 0 0 0 2.323-2.322A2.325 2.325 0 0 0 24 12.387zm0 3.097a.774.774 0 1 1 0-1.55.774.774 0 0 1 0 1.55z"/>
        <path d="M28.645 27.097V18.58h-1.548v8.516c0 5.123 4.167 9.29 9.29 9.29V34.84c-4.269 0-7.742-3.473-7.742-7.742zM19.355 18.58v8.517c0 4.269-3.473 7.742-7.742 7.742v1.548c5.123 0 9.29-4.167 9.29-9.29V18.58h-1.548zM23.226 31.742h1.548v7.742h-1.548zM23.226 21.677h1.548v6.194h-1.548zM23.226 18.581h1.548v1.548h-1.548z"/>
    </g>
</svg>
