<svg xmlns="http://www.w3.org/2000/svg" width="48" height="48" viewBox="0 0 48 48">
    <g fill="#003BDD" fill-rule="evenodd">
        <path d="M35.458 20.426a.934.934 0 0 0-1.324 0 .94.94 0 0 0 0 1.326.934.934 0 0 0 1.324 0 .94.94 0 0 0 0-1.326z"/>
        <path fill-rule="nonzero" d="M47.08 6.13L41.785.827a2.801 2.801 0 0 0-3.97 0l-1.697 1.7a2.808 2.808 0 0 0-.752 2.612l-7.674 1.357a8.374 8.374 0 0 0-4.49 2.343l-1.64 1.643a4.69 4.69 0 0 0-1.321 3.977 4.654 4.654 0 0 0-3.97 1.326 4.673 4.673 0 0 0-1.325 3.978 4.654 4.654 0 0 0-3.97 1.326 4.674 4.674 0 0 0-1.322 3.98 4.669 4.669 0 0 0-3.97 1.323l-3.77 3.777c-2.553 2.558-2.553 6.722 0 9.281l6.616 6.63a6.55 6.55 0 0 0 9.264 0l3.768-3.778a4.689 4.689 0 0 0 1.321-3.978 4.655 4.655 0 0 0 3.972-1.325 4.689 4.689 0 0 0 1.321-3.978 4.652 4.652 0 0 0 3.973-1.326 4.688 4.688 0 0 0 1.32-3.977 4.654 4.654 0 0 0 3.973-1.326l1.639-1.643a8.402 8.402 0 0 0 2.339-4.5l1.354-7.687c.93.21 1.91-.055 2.607-.754l1.697-1.7a2.814 2.814 0 0 0 0-3.978zM20.24 40.976l-3.769 3.777a4.678 4.678 0 0 1-6.617 0l-6.616-6.629a4.7 4.7 0 0 1 0-6.63l3.77-3.776a2.806 2.806 0 0 1 3.97 0l9.262 9.28a2.82 2.82 0 0 1 0 3.978zm5.293-5.303a2.803 2.803 0 0 1-3.97 0l-9.262-9.28a2.815 2.815 0 0 1 0-3.978 2.803 2.803 0 0 1 3.97-.001l9.262 9.28a2.82 2.82 0 0 1 0 3.979zm5.293-5.303a2.8 2.8 0 0 1-3.97 0l-9.262-9.281a2.813 2.813 0 0 1 0-3.978 2.8 2.8 0 0 1 3.97 0l9.262 9.281a2.819 2.819 0 0 1 0 3.978zm8.752-10.446a6.535 6.535 0 0 1-1.82 3.5l-1.639 1.643a2.806 2.806 0 0 1-3.97 0l-9.263-9.282a2.82 2.82 0 0 1 0-3.977l1.641-1.643a6.514 6.514 0 0 1 3.492-1.822l8.445-1.493 4.604 4.613-1.49 8.46zM45.756 8.78l-1.697 1.701a.934.934 0 0 1-1.323 0L37.443 5.18a.938.938 0 0 1 0-1.326l1.697-1.7a.934.934 0 0 1 1.323 0l5.293 5.303a.938.938 0 0 1 0 1.325zM47.29 35.51l-4.17-8.183a.936.936 0 0 0-1.666 0l-4.169 8.183c-1.895 3.715.805 8.18 5.003 8.18 4.196 0 6.897-4.464 5.002-8.18zm-5.002 6.305c-2.801 0-4.597-2.98-3.336-5.452l3.336-6.548 3.336 6.549c1.259 2.469-.533 5.451-3.336 5.451z"/>
        <path d="M32.811 17.774l-4.517-4.526a.935.935 0 0 0-1.323 0 .939.939 0 0 0 0 1.325l4.517 4.527a.935.935 0 0 0 1.323 0 .939.939 0 0 0 0-1.326z"/>
    </g>
</svg>
