<svg xmlns="http://www.w3.org/2000/svg" width="36" height="40" viewBox="0 0 36 40">
    <g fill="#003BDD" fill-rule="nonzero">
        <path d="M30.594 20c4.49-4.09 6.302-7.714 4.96-10-1.342-2.286-5.428-2.556-11.267-.767-.073-.31-.135-.621-.22-.933a2.645 2.645 0 0 0 1.266-2.993 2.691 2.691 0 0 0-2.609-1.974 2.69 2.69 0 0 0-.51.055C21.007 1.178 19.557 0 17.992 0c-2.68 0-4.957 3.358-6.302 9.233C5.854 7.445 1.767 7.712.43 10-.904 12.288.9 15.911 5.39 20c-.368.333-.719.661-1.035.975-.38-.2-.804-.305-1.235-.308a2.707 2.707 0 0 0-2.458 1.55 2.637 2.637 0 0 0 .401 2.85C-.376 27.555-.088 29.115.43 30c.754 1.291 2.382 1.94 4.707 1.94a23.145 23.145 0 0 0 6.557-1.17c1.342 5.873 3.619 9.23 6.298 9.23 2.68 0 4.958-3.36 6.302-9.237.609.184 1.217.352 1.816.496 0 .026-.005.049-.005.074.008 1.355 1.045 2.487 2.41 2.634 1.365.147 2.626-.738 2.93-2.058 2.524-.134 3.627-1.093 4.107-1.908 1.344-2.287-.468-5.912-4.958-10.001zM1.602 10.667c.96-1.642 4.784-1.678 9.815-.122a46.663 46.663 0 0 0-.703 5.313c-1.501.999-2.94 2.084-4.31 3.251-3.884-3.518-5.767-6.8-4.802-8.442zm9.015 11.788A43.465 43.465 0 0 1 7.426 20a43.26 43.26 0 0 1 3.19-2.455 56.066 56.066 0 0 0-.06 2.455c0 .8.024 1.623.06 2.455zM3.119 22c.743.01 1.343.6 1.352 1.333 0 .503-.288.963-.743 1.19-.455.225-1 .18-1.411-.118a1.299 1.299 0 0 1-.55-1.072c0-.736.605-1.333 1.352-1.333zM1.6 29.333c-.464-.788-.258-2.018.575-3.5v-.008a2.711 2.711 0 0 0 3.069-.83 2.621 2.621 0 0 0 .114-3.136h.01c.314-.31.664-.634 1.035-.968a45.546 45.546 0 0 0 4.31 3.253c.133 1.783.368 3.557.704 5.313-5.032 1.554-8.858 1.519-9.817-.124zM22.17 4.79c.173-.081.363-.123.554-.122.671.01 1.233.503 1.32 1.16a1.333 1.333 0 0 1-.972 1.456A1.343 1.343 0 0 1 21.372 6a1.32 1.32 0 0 1 .798-1.21zm1.664 10.134a57.012 57.012 0 0 0-2.124-1.276 60.69 60.69 0 0 0-2.187-1.178 45.174 45.174 0 0 1 3.75-1.498c.237 1.257.424 2.575.56 3.954v-.002zm-5.842-13.59c1.014 0 2.069.924 3.004 2.617h.006a2.64 2.64 0 0 0-.822 2.956 2.699 2.699 0 0 0 2.544 1.76c.017 0 .033-.003.051-.003h-.004c.085.33.155.66.228.99a47.687 47.687 0 0 0-5.007 2.056 47.638 47.638 0 0 0-5.012-2.055c1.147-5.072 3.088-8.32 5.012-8.32zm-5.281 9.641c1.24.432 2.494.933 3.75 1.497-.732.378-1.465.767-2.187 1.178a55.88 55.88 0 0 0-2.123 1.27c.133-1.375.322-2.692.56-3.945zm-.56 14.1c.68.427 1.38.855 2.123 1.277.722.411 1.455.8 2.187 1.178a45.168 45.168 0 0 1-3.75 1.497 45.29 45.29 0 0 1-.56-3.951zm5.841 13.593c-1.923 0-3.865-3.248-5.012-8.321a47.638 47.638 0 0 0 5.012-2.055 47.744 47.744 0 0 0 5.011 2.055c-1.145 5.072-3.087 8.32-5.01 8.32zm5.281-9.641a46.688 46.688 0 0 1-3.75-1.497 55.347 55.347 0 0 0 4.31-2.449 44.06 44.06 0 0 1-.56 3.946zm.693-5.626c-.91.6-1.887 1.2-2.932 1.796a57.875 57.875 0 0 1-3.042 1.609 53.958 53.958 0 0 1-5.974-3.405 56.32 56.32 0 0 1-.11-3.4c0-1.1.04-2.245.11-3.4.909-.6 1.886-1.2 2.932-1.796a57.744 57.744 0 0 1 3.042-1.609c1.014.5 2.038 1.037 3.042 1.609 1.044.594 2.02 1.2 2.932 1.796.067 1.155.11 2.3.11 3.4s-.04 2.245-.11 3.4zm10.417-12.733c.964 1.64-.92 4.924-4.8 8.441a45.72 45.72 0 0 0-4.31-3.251 46.665 46.665 0 0 0-.703-5.314c5.027-1.554 8.854-1.519 9.813.124zm-9.016 6.878c1.144.8 2.208 1.622 3.191 2.455a43.19 43.19 0 0 1-3.191 2.455c.037-.832.062-1.655.062-2.455s-.025-1.623-.062-2.455zm3.442 15.122a1.343 1.343 0 0 1-1.352-1.334 1.348 1.348 0 0 1 1.52-1.318c.652.082 1.15.617 1.176 1.266 0 .023 0 .047.006.07a1.343 1.343 0 0 1-1.35 1.316zm5.574-3.334c-.525.893-1.816 1.182-2.981 1.246l-.005.01a2.681 2.681 0 0 0-2.26-1.902 2.703 2.703 0 0 0-2.66 1.31v-.01a30.743 30.743 0 0 1-1.908-.534 46.85 46.85 0 0 0 .703-5.31c1.5-1 2.94-2.085 4.31-3.252 3.881 3.518 5.765 6.8 4.8 8.442z"/>
        <path d="M17.992 16c-2.24 0-4.056 1.791-4.056 4s1.816 4 4.056 4 4.056-1.791 4.056-4c-.002-2.208-1.817-3.998-4.056-4zm0 6.667c-1.494 0-2.704-1.194-2.704-2.667 0-1.473 1.21-2.667 2.704-2.667 1.493 0 2.704 1.194 2.704 2.667 0 1.473-1.21 2.667-2.704 2.667z"/>
    </g>
</svg>
