<svg xmlns="http://www.w3.org/2000/svg" width="32" height="40" viewBox="0 0 32 40">
    <g fill="#003BDD" fill-rule="evenodd">
        <path fill-rule="nonzero" d="M31.316 10.191h-1.114a8.98 8.98 0 0 0-2.266-5.352l.785-.767a.626.626 0 0 0 0-.9.663.663 0 0 0-.922 0l-.785.766a9.382 9.382 0 0 0-5.48-2.217V.637A.645.645 0 0 0 20.88 0a.645.645 0 0 0-.652.637V1.72a9.383 9.383 0 0 0-5.48 2.217l-.785-.767a.663.663 0 0 0-.922 0 .626.626 0 0 0 0 .901l.768.75L9.852 8.69l-.769-.75a.663.663 0 0 0-.922 0 .627.627 0 0 0 0 .9l.768.751-3.959 3.866-.768-.75a.663.663 0 0 0-.922 0 .626.626 0 0 0 0 .9l.784.767A8.98 8.98 0 0 0 1.8 19.726H.685a.645.645 0 0 0-.653.636c0 .352.292.637.653.637h1.114a8.981 8.981 0 0 0 2.265 5.353L1.742 28.62a4.378 4.378 0 0 0-1.337 3.152c0 1.191.475 2.31 1.337 3.153a4.591 4.591 0 0 0 3.228 1.306A4.59 4.59 0 0 0 8.2 34.925l.614-.6a3.32 3.32 0 0 1 4.612 0 3.136 3.136 0 0 1 0 4.503.627.627 0 0 0 0 .901.658.658 0 0 0 .461.187.658.658 0 0 0 .461-.187 4.39 4.39 0 0 0 0-6.305c-1.78-1.739-4.676-1.739-6.456 0l-.615.6a3.28 3.28 0 0 1-2.306.933c-.87 0-1.69-.331-2.305-.933a3.127 3.127 0 0 1-.955-2.252c0-.85.339-1.65.955-2.252l2.322-2.267a9.382 9.382 0 0 0 5.48 2.217v1.083c0 .352.292.637.652.637.36 0 .652-.285.652-.637V29.47a9.382 9.382 0 0 0 5.48-2.217l.785.766a.658.658 0 0 0 .461.186.658.658 0 0 0 .462-.186.626.626 0 0 0 0-.9l-.769-.751L22.15 22.5l.768.75a.658.658 0 0 0 .462.187.658.658 0 0 0 .46-.186.626.626 0 0 0 0-.901l-.768-.75 3.959-3.867.769.75a.658.658 0 0 0 .46.187.658.658 0 0 0 .462-.187.626.626 0 0 0 0-.9l-.785-.767a8.98 8.98 0 0 0 2.266-5.352h1.114c.36 0 .652-.285.652-.637a.645.645 0 0 0-.652-.637zm-4.747 6.192l-9.762 9.534a8.089 8.089 0 0 1-5.688 2.301 8.088 8.088 0 0 1-5.687-2.3 7.735 7.735 0 0 1 0-11.11l9.762-9.535a8.089 8.089 0 0 1 5.686-2.3c2.15 0 4.17.817 5.689 2.3a7.735 7.735 0 0 1 0 11.11z"/>
        <ellipse cx="22.111" cy="12.69" rx="1" ry="1"/>
        <ellipse cx="22.111" cy="9.087" rx="1" ry="1"/>
        <path d="M16.116 6.174a.627.627 0 0 0 0 .9.663.663 0 0 0 .922 0c2.12-2.069 5.567-2.069 7.686 0a5.227 5.227 0 0 1 0 7.507l-9.762 9.535a5.464 5.464 0 0 1-3.843 1.551 5.464 5.464 0 0 1-3.843-1.551 5.21 5.21 0 0 1-1.589-3.754 5.21 5.21 0 0 1 1.59-3.753l7.917-7.733a.627.627 0 0 0 0-.9.663.663 0 0 0-.922 0l-7.918 7.732a6.46 6.46 0 0 0-1.971 4.655c0 1.76.7 3.412 1.971 4.653a6.775 6.775 0 0 0 4.765 1.925 6.776 6.776 0 0 0 4.765-1.924l9.763-9.535a6.481 6.481 0 0 0 0-9.308c-2.628-2.566-6.903-2.566-9.53 0z"/>
        <ellipse cx="9.889" cy="18.501" rx="1" ry="1"/>
        <path d="M14.542 16.719c-.137.134-.227.142-.517.15-.356.01-.893.026-1.402.523a.626.626 0 0 0 0 .9.658.658 0 0 0 .461.187.658.658 0 0 0 .461-.186c.137-.134.227-.142.518-.15.355-.01.892-.026 1.402-.523.509-.498.525-1.022.535-1.37.009-.283.017-.371.154-.505s.227-.142.518-.15c.355-.01.892-.026 1.401-.523.51-.497.525-1.022.536-1.369.008-.284.017-.372.154-.506a.626.626 0 0 0 0-.9.663.663 0 0 0-.923 0c-.509.497-.525 1.022-.535 1.369-.008.284-.017.371-.154.505s-.227.142-.517.15c-.356.01-.893.026-1.402.523-.51.498-.525 1.022-.536 1.37-.008.283-.017.371-.154.505z"/>
    </g>
</svg>
