<svg xmlns="http://www.w3.org/2000/svg" width="40" height="40" viewBox="0 0 40 40">
    <g fill="#003BDD" fill-rule="nonzero">
        <path d="M39.355 23.226h-.645V18.71c0-4.625-3.763-8.387-8.387-8.387V8.387a.645.645 0 0 0-.646-.645h-3.225V5.79c.238-.18.448-.39.628-.629h4.134c.454.397 1.04.645 1.69.645a2.583 2.583 0 0 0 2.58-2.58 2.583 2.583 0 0 0-2.58-2.58c-.65 0-1.236.247-1.69.644H27.08A3.211 3.211 0 0 0 24.516 0c-1.05 0-1.975.512-2.564 1.29h-4.134A2.558 2.558 0 0 0 16.13.645a2.583 2.583 0 0 0-2.58 2.58 2.583 2.583 0 0 0 2.58 2.581c.648 0 1.235-.248 1.69-.645h4.133c.18.238.39.449.629.629v1.952h-3.226a.645.645 0 0 0-.645.645v1.936h-1.29c-4.625 0-8.388 3.762-8.388 8.387v7.096c0 .356-.289.646-.645.646H6.452v-.646a.645.645 0 0 0-.646-.645H0v1.29h5.161v9.678H0v1.29h5.806c.357 0 .646-.289.646-.645v-.645h3.87c4.625 0 8.388-3.763 8.388-8.387v-7.097c0-.355.289-.645.645-.645h8.387c.356 0 .645.29.645.645v2.58h-.645a.645.645 0 0 0-.645.646v2.58c0 .357.288.646.645.646h11.613c.357 0 .645-.29.645-.645V23.87a.645.645 0 0 0-.645-.645zm-6.452-21.29c.712 0 1.29.578 1.29 1.29 0 .711-.578 1.29-1.29 1.29-.711 0-1.29-.579-1.29-1.29 0-.712.579-1.29 1.29-1.29zm-5.226.645h2.737a2.54 2.54 0 0 0-.091.645c0 .224.037.437.091.645h-2.737a3.229 3.229 0 0 0 0-1.29zM16.129 4.516c-.712 0-1.29-.579-1.29-1.29 0-.712.578-1.29 1.29-1.29.712 0 1.29.578 1.29 1.29 0 .711-.578 1.29-1.29 1.29zm5.227-.645h-2.738a2.54 2.54 0 0 0 .092-.645 2.54 2.54 0 0 0-.092-.645h2.738a3.229 3.229 0 0 0 0 1.29zm3.16-2.58c1.067 0 1.936.868 1.936 1.935a1.938 1.938 0 0 1-1.936 1.935 1.938 1.938 0 0 1-1.935-1.935c0-1.067.868-1.936 1.935-1.936zm.645 5.095v1.356h-1.29V6.386a3.229 3.229 0 0 0 1.29 0zM17.42 27.742c0 3.913-3.184 7.097-7.096 7.097H6.452v-7.097h1.935c.84 0 1.55-.541 1.817-1.29h7.215v1.29zm0-2.58h-7.096V21.29h7.096v3.871zm3.871-6.452h-1.935c-.84 0-1.55.54-1.817 1.29h-7.215v-1.29c0-3.913 3.183-7.097 7.096-7.097h3.871v7.097zm5.162 0H22.58v-7.097h3.87v7.097zM20 10.323v-1.29h9.032v1.29H20zm7.742 8.387v-7.097h2.58c3.913 0 7.097 3.184 7.097 7.097v1.935h-7.742a1.938 1.938 0 0 0-1.935-1.935zm9.677 3.225v1.29h-7.742v-1.29h7.742zm1.29 3.871H28.388v-1.29H38.71v1.29z"/>
        <path d="M34.096 28.69c-.236-.377-.859-.377-1.094 0l-2.343 3.75a6.436 6.436 0 0 0-.982 3.419v.27c0 1.088.462 2.132 1.268 2.865a3.888 3.888 0 0 0 2.981.988c1.96-.186 3.493-1.94 3.493-3.992v-.131c0-1.211-.338-2.393-.98-3.42l-2.343-3.749zm2.033 7.3c0 1.394-1.021 2.583-2.325 2.707a2.567 2.567 0 0 1-1.991-.658 2.586 2.586 0 0 1-.845-1.91v-.27c0-.969.271-1.915.784-2.736l1.796-2.873 1.797 2.874c.512.82.784 1.766.784 2.735v.131zM25.739 26.809c-.22-.438-.935-.438-1.155 0l-2.17 4.343a4.529 4.529 0 0 0-.479 2.02v.376c0 .968.429 1.876 1.177 2.491.582.48 1.306.735 2.054.735.212 0 .426-.021.64-.062 1.495-.293 2.581-1.67 2.581-3.275v-.265c0-.698-.165-1.397-.477-2.02l-2.171-4.343zm1.358 6.628c0 .973-.661 1.836-1.539 2.007a1.933 1.933 0 0 1-1.626-.401 1.927 1.927 0 0 1-.706-1.495v-.376c0-.498.118-.996.34-1.442l1.595-3.19 1.595 3.19c.223.445.34.944.34 1.442v.266z"/>
    </g>
</svg>
