<svg xmlns="http://www.w3.org/2000/svg" width="48" height="34" viewBox="0 0 48 34">
    <g fill="#003BDD" fill-rule="evenodd">
        <path fill-rule="nonzero" d="M35.755 6.9V3.266c0-.85-.331-1.65-.932-2.251-.601-.602-1.4-.933-2.252-.933a3.187 3.187 0 0 0-3.183 3.184V5.08h-3.429V3.267A3.187 3.187 0 0 0 22.776.083a3.187 3.187 0 0 0-3.184 3.184V5.08h-3.429V3.267A3.187 3.187 0 0 0 12.98.083a3.187 3.187 0 0 0-3.184 3.184V5.08H7.592v1.47h2.204v1.47H7.592v1.469h2.204v14.4H6.367V3.267A3.187 3.187 0 0 0 3.184.082 3.187 3.187 0 0 0 0 3.267v26.84a3.187 3.187 0 0 0 3.184 3.185 3.187 3.187 0 0 0 3.183-3.184v-1.812h3.429v1.812a3.187 3.187 0 0 0 3.184 3.184 3.187 3.187 0 0 0 3.183-3.184v-1.812h2.204v-1.47h-2.204v-1.47h2.204v-1.469h-2.204v-14.4h3.429v20.62a3.187 3.187 0 0 0 3.183 3.185 3.187 3.187 0 0 0 3.184-3.184v-1.812h3.429v1.812a3.187 3.187 0 0 0 3.183 3.184 3.187 3.187 0 0 0 3.184-3.184v-5.946h-1.47v5.946c0 .945-.769 1.714-1.714 1.714a1.716 1.716 0 0 1-1.714-1.714V19.583h-1.47v4.305H25.96v-14.4h3.428v1.99h1.47v-8.21a1.716 1.716 0 0 1 2.927-1.213c.323.323.502.754.502 1.212V6.9h1.47zM4.898 30.107c0 .945-.77 1.714-1.714 1.714a1.716 1.716 0 0 1-1.715-1.714V3.268c0-.946.77-1.715 1.715-1.715.945 0 1.714.769 1.714 1.714v26.84zm4.898-3.282H6.367v-1.47h3.429v1.47zm4.898 3.282c0 .945-.77 1.714-1.714 1.714a1.716 1.716 0 0 1-1.715-1.714V3.268c0-.946.77-1.715 1.715-1.715.945 0 1.714.769 1.714 1.714v26.84zm4.898-22.09h-3.429v-1.47h3.429v1.47zm4.898 22.09c0 .945-.77 1.714-1.715 1.714a1.716 1.716 0 0 1-1.714-1.714V3.268c0-.946.77-1.715 1.714-1.715.946 0 1.715.769 1.715 1.714v26.84zm4.898-4.751v1.47h-3.429v-1.47h3.429zm0-17.339h-3.429v-1.47h3.429v1.47z"/>
        <path d="M44.182 9.786a8.031 8.031 0 0 0-5.684-2.337c-4.456 0-8.082 3.626-8.082 8.082 0 4.456 3.626 8.081 8.082 8.081.393 0 .788-.028 1.175-.085l-.212-1.454a6.62 6.62 0 0 1-7.575-6.543 6.62 6.62 0 0 1 6.612-6.612c3.605 0 6.57 2.933 6.611 6.537l1.47-.017a8.03 8.03 0 0 0-2.397-5.652z"/>
        <path d="M38.498 10.388a5.149 5.149 0 0 0-5.143 5.142h1.47a3.678 3.678 0 0 1 3.673-3.673 3.678 3.678 0 0 1 3.673 3.673h1.47a5.149 5.149 0 0 0-5.143-5.142z"/>
        <path fill-rule="nonzero" d="M44.878 16.202l-.551-.626-.552.626c-.521.592-3.122 3.636-3.122 5.445a3.678 3.678 0 0 0 3.674 3.673A3.678 3.678 0 0 0 48 21.647c0-1.81-2.6-4.853-3.122-5.445zm-.551 7.649a2.207 2.207 0 0 1-2.205-2.204c0-.785 1.156-2.516 2.205-3.818 1.048 1.3 2.204 3.032 2.204 3.818a2.207 2.207 0 0 1-2.204 2.204z"/>
        <path d="M38.498 12.885s-1.088 3.602-1.088 4.202a1.088 1.088 0 0 0 2.176 0c0-.6-1.088-4.202-1.088-4.202z"/>
    </g>
</svg>
