<svg xmlns="http://www.w3.org/2000/svg" width="35" height="40" viewBox="0 0 35 40">
    <g fill="#003BDD" fill-rule="nonzero">
        <path d="M27.237 9.64H23.04a3.37 3.37 0 0 0-.578-.563l1.89-3.092a.638.638 0 0 0-.256-.899L22.28 4.1l1.047-1.712a.639.639 0 0 0-.255-.9L20.653.17a.722.722 0 0 0-.954.242l-1.047 1.712-1.812-.988a.722.722 0 0 0-.954.24L8.206 13.92a.638.638 0 0 0 .255.9l1.815.987-1.047 1.712a.639.639 0 0 0 .255.9l2.42 1.316a.722.722 0 0 0 .953-.24l1.047-1.713 1.816.988a.73.73 0 0 0 .526.066.696.696 0 0 0 .424-.307l2.352-3.844c1.448.534 3.096.085 4.02-1.094h4.195c1.928.002 3.49 1.475 3.492 3.292v6.584c-.002 1.818-1.564 3.29-3.492 3.293h-5.259a5.995 5.995 0 0 0-1.466-2.22c-2.27-2.14-5.889-2.32-8.385-.414H2.1c-.385 0-.698.295-.698.658v2.634c0 .364.313.658.698.658h7.725a5.742 5.742 0 0 0-.044.659v4.609h-7.68c-1.158 0-2.096.884-2.096 1.975v2.634c0 1.09.938 1.975 2.095 1.975h27.93c1.158 0 2.095-.884 2.095-1.975v-2.634c0-1.09-.937-1.975-2.095-1.975h-7.68V30.71h4.887c4.24-.005 7.676-3.245 7.681-7.243v-6.584c-.005-3.998-3.44-7.238-7.68-7.243zm-6.676-8l1.21.659-.699 1.14-1.21-.659.699-1.14zm-8.566 16.626l-1.21-.659.698-1.14 1.21.658-.698 1.14zm3.815-.964l-6.046-3.293 6.983-11.402 6.046 3.292-1.56 2.556c-.021-.006-.044-.008-.065-.013-.1-.026-.202-.046-.304-.066-.048-.008-.096-.019-.146-.025a3.775 3.775 0 0 0-.463-.028 3.55 3.55 0 0 0-2.693 1.179 3.13 3.13 0 0 0-.734 2.712l.024.12c.044.187.104.37.181.546.014.032.032.062.047.094.076.16.167.314.27.46.016.024.03.049.047.072.118.156.25.301.394.435.016.015.027.034.044.049l-2.025 3.312zm4.445-3.711a2.222 2.222 0 0 1-1.136-.316c-.781-.474-1.137-1.377-.874-2.218.263-.84 1.08-1.417 2.01-1.417.746.005 1.434.38 1.81.988.374.61.375 1.363.001 1.974-.373.61-1.063.988-1.811.989zM2.798 25.443h8.042c-.026.036-.045.075-.07.112-.055.08-.104.164-.154.248a5.726 5.726 0 0 0-.387.756c-.029.066-.065.132-.091.198h-7.34v-1.314zm27.93 9.876v2.634c0 .364-.312.658-.698.658H2.1c-.385 0-.698-.294-.698-.658v-2.634c0-.363.313-.658.698-.658h27.93c.386 0 .699.295.699.658zm-19.55-1.975v-4.61c-.003-.619.13-1.233.388-1.803.636-1.409 1.973-2.428 3.566-2.72 1.594-.293 3.239.18 4.39 1.26a4.645 4.645 0 0 1 1.278 2.107c.1.378.152.767.153 1.157v4.609h-9.776zm22.344-9.877c-.004 3.272-2.816 5.922-6.285 5.926H22.35v-.658c0-.22-.013-.44-.04-.659h4.927c2.699-.002 4.885-2.064 4.888-4.609v-6.584c-.003-2.544-2.19-4.606-4.888-4.609h-3.56c.005-.024.003-.05.008-.074a2.716 2.716 0 0 0 0-1.17c-.005-.024 0-.049-.008-.073h3.56c3.47.004 6.28 2.655 6.285 5.926v6.584z"/>
        <path d="M16.065 25.443c-1.928 0-3.491 1.473-3.491 3.292 0 1.818 1.563 3.292 3.491 3.292 1.929 0 3.492-1.474 3.492-3.292-.002-1.818-1.564-3.29-3.492-3.292zm0 5.267c-1.157 0-2.094-.884-2.094-1.975 0-1.091.937-1.975 2.094-1.975 1.157 0 2.095.884 2.095 1.975 0 1.09-.938 1.975-2.095 1.975z"/>
    </g>
</svg>
