<svg xmlns="http://www.w3.org/2000/svg" width="48" height="40" viewBox="0 0 48 40">
    <g fill="#003BDD" fill-rule="evenodd">
        <path fill-rule="nonzero" d="M15.082 33.999a.831.831 0 0 0-1.36 0l-1.6 2.604a.79.79 0 0 0-.122.417v.52a2.397 2.397 0 0 0 2.4 2.394c1.325 0 2.4-1.072 2.4-2.394v-.52a.792.792 0 0 0-.118-.417l-1.6-2.604zm.118 3.54a.799.799 0 0 1-1.6 0v-.295l.8-1.301.8 1.301v.296zM26.4 37.54v-.52a.792.792 0 0 0-.118-.417l-1.6-2.604a.831.831 0 0 0-1.36 0l-1.6 2.604a.79.79 0 0 0-.122.417v.52a2.397 2.397 0 0 0 2.4 2.394c1.325 0 2.4-1.072 2.4-2.394zm-3.2 0v-.296l.8-1.301.8 1.301v.296a.799.799 0 0 1-1.6 0zM36 37.54v-.52a.792.792 0 0 0-.118-.417l-1.6-2.604a.831.831 0 0 0-1.36 0l-1.6 2.604a.79.79 0 0 0-.122.417v.52a2.397 2.397 0 0 0 2.4 2.394c1.325 0 2.4-1.072 2.4-2.394zm-3.2 0v-.296l.8-1.301.8 1.301v.296a.799.799 0 0 1-1.6 0z"/>
        <path d="M25.834 16.194l-3.2 3.192a.797.797 0 0 0 .354 1.346c.28.073.577-.01.778-.218l3.2-3.192a.797.797 0 0 0-.01-1.118.802.802 0 0 0-1.122-.01zM16.234 16.194l-3.2 3.192a.797.797 0 0 0 .353 1.346c.28.073.578-.01.779-.218l3.2-3.192a.797.797 0 0 0-.01-1.118.802.802 0 0 0-1.122-.01zM34.634 16.194l-3.2 3.192a.797.797 0 0 0 .354 1.346c.28.073.577-.01.778-.218l3.2-3.192a.797.797 0 0 0-.01-1.118.802.802 0 0 0-1.122-.01z"/>
        <path fill-rule="nonzero" d="M38.4 11.172a9.349 9.349 0 0 0-2.582.559C34.354 4.777 29.593 0 24 0S13.646 4.777 12.182 11.73a9.349 9.349 0 0 0-2.582-.558c-5.302 0-9.6 4.287-9.6 9.576 0 5.289 4.298 9.576 9.6 9.576h28.8c5.302 0 9.6-4.287 9.6-9.576 0-5.289-4.298-9.576-9.6-9.576zm0 17.556H9.6c-4.418 0-8-3.573-8-7.98s3.582-7.98 8-7.98c.846.1 1.677.302 2.473.604l.488.16a.802.802 0 0 0 1.028-.632C14.686 6.244 18.966 1.596 24 1.596s9.314 4.648 10.41 11.301a.8.8 0 0 0 1.029.632l.488-.16a10.356 10.356 0 0 1 2.473-.6c4.418 0 8 3.572 8 7.98 0 4.406-3.582 7.98-8 7.98z"/>
    </g>
</svg>
