<?xml version="1.0" encoding="UTF-8" standalone="no"?>
<!-- Created with Inkscape (http://www.inkscape.org/) -->

<svg
   xmlns:dc="http://purl.org/dc/elements/1.1/"
   xmlns:cc="http://creativecommons.org/ns#"
   xmlns:rdf="http://www.w3.org/1999/02/22-rdf-syntax-ns#"
   xmlns:svg="http://www.w3.org/2000/svg"
   xmlns="http://www.w3.org/2000/svg"
   xmlns:sodipodi="http://sodipodi.sourceforge.net/DTD/sodipodi-0.dtd"
   xmlns:inkscape="http://www.inkscape.org/namespaces/inkscape"
   version="1.1"
   id="svg4643"
   width="52.693844"
   height="67.5"
   viewBox="0 0 52.693844 67.5"
   sodipodi:docname="1.svg"
   inkscape:version="0.92.2 (5c3e80d, 2017-08-06)">
  <metadata
     id="metadata4649">
    <rdf:RDF>
      <cc:Work
         rdf:about="">
        <dc:format>image/svg+xml</dc:format>
        <dc:type
           rdf:resource="http://purl.org/dc/dcmitype/StillImage" />
        <dc:title></dc:title>
      </cc:Work>
    </rdf:RDF>
  </metadata>
  <defs
     id="defs4647" />
  <sodipodi:namedview
     pagecolor="#ffffff"
     bordercolor="#666666"
     borderopacity="1"
     objecttolerance="10"
     gridtolerance="10"
     guidetolerance="10"
     inkscape:pageopacity="0"
     inkscape:pageshadow="2"
     inkscape:window-width="1024"
     inkscape:window-height="705"
     id="namedview4645"
     showgrid="false"
     fit-margin-top="0"
     fit-margin-left="0"
     fit-margin-right="0"
     fit-margin-bottom="0"
     inkscape:zoom="1.2270382"
     inkscape:cx="73.666864"
     inkscape:cy="29.968519"
     inkscape:window-x="-4"
     inkscape:window-y="-4"
     inkscape:window-maximized="1"
     inkscape:current-layer="svg4643" />
  <path
     style="fill:#333333;fill-opacity:1"
     d="M 5.911633,55.5 C -0.46453994,42.346773 -1.3772469,37.383021 1.713136,32.666501 c 5.909952,-9.019728 20.243521,-5.952734 22.253553,4.761654 0.615626,3.281554 -0.07674,5.309784 -5.769171,16.900464 L 11.728767,67.5 Z M 16.829536,44.09354 C 19.346862,41.311926 18.555016,36.17403 15.227877,33.70117 12.902841,31.973112 11.71478,32.732447 9.6075965,32.919888 6.829662,33.166995 4.990459,37.078159 4.990459,39.479991 c 0,0.449949 0.35639,2.435978 1.496309,3.88515 2.547105,3.238119 7.740504,3.603869 10.342768,0.728399 z M 15.437548,66.25 c 0.01285,-0.4125 1.250348,-2.984438 2.75,-5.715417 2.082579,-3.792532 3.435274,-5.109727 5.726641,-5.576351 4.611806,-0.93917 7.334636,-2.737767 8.989646,-5.938216 1.8155,-3.510774 1.89855,-6.53989 0.33918,-12.370193 -1.03141,-3.85635 -0.93527,-4.782798 0.80573,-7.763794 1.75581,-3.006373 8.35043,-7.825541 10.76885,-7.869579 0.49687,-0.009 -0.74063,1.580212 -2.75,3.531688 -4.06829,3.951064 -4.32262,5.303642 -2.15341,11.451862 3.56911,10.115923 0.90588,20.717719 -6.4227,25.567544 C 27.613865,65.45717 15.363282,68.634472 15.437548,66.25 Z M 44.122505,14.477846 C 40.777965,7.6584559 40.627785,3.6642241 43.636695,1.556704 44.859075,0.7005168 46.580635,0 47.462385,0 c 1.83793,0 5.23146,3.4578364 5.23146,5.2601372 C 52.693845,6.5744719 47.763255,20 47.185225,20 c -0.19492,0 -1.57314,-2.484969 -3.06272,-5.522154 z m 5.12918,-5.3562491 c 0.73562,-0.466277 1.18562,-1.921887 1,-3.234687 -0.4644,-3.2844348 -5.35665,-4.1213448 -6.33427,-1.0411291 -1.13494,3.5758771 2.17118,6.2807572 5.33427,4.2758161 z"
     id="path4661"
     inkscape:connector-curvature="0"
     sodipodi:nodetypes="sssscssssssscssccccccsccsssscscss" />
</svg>
