<?xml version="1.0" encoding="UTF-8" standalone="no"?>
<!-- Created with Inkscape (http://www.inkscape.org/) -->

<svg
   xmlns:dc="http://purl.org/dc/elements/1.1/"
   xmlns:cc="http://creativecommons.org/ns#"
   xmlns:rdf="http://www.w3.org/1999/02/22-rdf-syntax-ns#"
   xmlns:svg="http://www.w3.org/2000/svg"
   xmlns="http://www.w3.org/2000/svg"
   xmlns:sodipodi="http://sodipodi.sourceforge.net/DTD/sodipodi-0.dtd"
   xmlns:inkscape="http://www.inkscape.org/namespaces/inkscape"
   version="1.1"
   id="svg5502"
   width="68"
   height="59.704712"
   viewBox="0 0 68 59.704712"
   sodipodi:docname="2.svg"
   inkscape:version="0.92.2 (5c3e80d, 2017-08-06)">
  <metadata
     id="metadata5508">
    <rdf:RDF>
      <cc:Work
         rdf:about="">
        <dc:format>image/svg+xml</dc:format>
        <dc:type
           rdf:resource="http://purl.org/dc/dcmitype/StillImage" />
        <dc:title></dc:title>
      </cc:Work>
    </rdf:RDF>
  </metadata>
  <defs
     id="defs5506" />
  <sodipodi:namedview
     pagecolor="#ffffff"
     bordercolor="#666666"
     borderopacity="1"
     objecttolerance="10"
     gridtolerance="10"
     guidetolerance="10"
     inkscape:pageopacity="0"
     inkscape:pageshadow="2"
     inkscape:window-width="1024"
     inkscape:window-height="705"
     id="namedview5504"
     showgrid="false"
     fit-margin-top="0"
     fit-margin-left="0"
     fit-margin-right="0"
     fit-margin-bottom="0"
     inkscape:zoom="5.5625733"
     inkscape:cx="53.872913"
     inkscape:cy="17.525588"
     inkscape:window-x="-4"
     inkscape:window-y="-4"
     inkscape:window-maximized="1"
     inkscape:current-layer="svg5502" />
  <path
     style="fill:#333333;fill-opacity:1"
     d="M 3,58.359702 C 3,57.619945 3.9,56.2002 5,55.204714 6.1,54.209228 7,52.867925 7,52.22404 7,50.735633 2.753543,46.704714 1.185548,46.704714 c -0.652051,0 -1.185548,-0.45 -1.185548,-1 0,-0.55 0.90857297,-1 2.019052,-1 1.577914,0 1.90789,-0.491597 1.510274,-2.25 -0.279828,-1.2375 0.274099,-5.85 1.230948,-10.25 1.684965,-7.748185 1.835927,-8.009409 4.795986,-8.298909 5.940475,-0.580991 11.39281,3.249839 8.600151,6.042498 -0.812205,0.812205 -1.65093,0.618852 -3.132782,-0.722205 -2.399596,-2.171604 -2.666139,-0.883708 -0.466925,2.25611 1.214277,1.733624 2.540995,2.222506 6.031385,2.222506 3.1403,0 4.654022,0.467355 5.076078,1.567217 1.00481,2.618498 -0.892726,3.367897 -6.945887,2.743156 -5.450751,-0.562567 -5.916194,-0.826858 -8.282835,-4.703218 -2.317912,-3.796544 -2.45778,-3.880274 -1.849443,-1.107155 1.456643,6.640134 2.641583,7.966125 7.632738,8.541304 2.583461,0.297717 5.019332,0.863434 5.413047,1.25715 0.984315,0.984315 -3.664863,15.484107 -5.43613,16.954128 -1.155252,0.958775 -1.885722,0.619753 -3.778045,-1.753447 L 10.07172,54.26182 7.231141,56.983267 C 4.070758,60.011105 3,60.359434 3,58.359702 Z M 14,51.58668 c 0,-0.55 -0.45,-0.721885 -1,-0.381966 -0.55,0.339919 -1,1.068034 -1,1.618034 0,0.55 0.45,0.721885 1,0.381966 0.55,-0.339919 1,-1.068034 1,-1.618034 z m -2.249533,-3.631966 c 0.261315,-0.784826 -0.545161,-1.25 -2.167134,-1.25 -2.523849,0 -3.288269,0.961731 -1.882097,2.367903 1.028774,1.028775 3.567875,0.327785 4.049231,-1.117903 z m 24.24953,9.431462 c 0,-2.397952 -2.17049,-5.177639 -3.22191,-4.126216 -0.29584,0.295842 -0.84416,-0.682357 -1.21848,-2.173776 l -0.68059,-2.71167 -1.93951,3.18927 c -1.06673,1.754098 -1.93951,4.115893 -1.93951,5.248433 0,2.675858 -2.397801,1.928245 -2.811798,-0.876693 -0.171491,-1.161894 0.440487,-3.260673 1.359948,-4.663952 0.91947,-1.40328 1.4114,-3.229891 1.09319,-4.059138 -0.34596,-0.90156 -0.0152,-1.50772 0.82266,-1.50772 0.77067,0 1.67368,-0.858429 2.00668,-1.907619 0.333,-1.04919 1.26333,-2.160067 2.06739,-2.468615 1.06763,-0.409689 1.46193,0.192662 1.46193,2.233305 0,1.68762 0.99013,3.724473 2.5,5.142929 1.80851,1.699 2.5,3.390484 2.5,6.115297 0,2.071668 -0.45,4.044784 -1,4.384703 -0.56216,0.347432 -1,-0.448801 -1,-1.818538 z m 8.70124,1.686441 c -1.51167,-1.511664 -0.64447,-15.817127 1.16457,-19.211143 l 1.78199,-3.343241 1.52752,2.343241 c 1.30264,1.998261 1.36538,3.66691 0.42611,11.334147 -0.82426,6.728381 -1.49117,9.064806 -2.65019,9.28457 -0.85182,0.161514 -1.86432,-0.02189 -2.25,-0.407574 z m 12.49876,-0.567903 c -0.69889,-0.698893 -1.2,-4.049945 -1.2,-8.024751 0,-6.405789 0.15747,-6.88462 2.5651,-7.8 1.41081,-0.536387 2.76081,-0.975249 3,-0.975249 0.2392,0 0.4349,3.51 0.4349,7.8 0,7.031897 -0.93179,10.2 -3,10.2 -0.33,0 -1.14,-0.54 -1.8,-1.2 z M 53.222507,39.14801 c -1.22238,-0.856187 -2.22251,-2.420813 -2.22251,-3.476947 0,-1.056134 -1.2375,-2.707723 -2.75,-3.670198 -3.69974,-2.354319 -4.36687,-3.390271 -3.90806,-6.068559 0.28703,-1.675505 -0.56044,-3.016382 -3.22633,-5.104714 -1.98858,-1.557767 -4.17811,-2.635184 -4.86561,-2.394258 -0.6875,0.240926 -1.25,-0.26033 -1.25,-1.113902 0,-0.905962 -0.57233,-1.332324 -1.375,-1.024311 -0.94591,0.362981 -1.375,-0.270937 -1.375,-2.031385 0,-1.407462 0.35695,-2.559022 0.79322,-2.559022 0.43626,0 1.50501,-0.273145 2.375,-0.606989 1.03798,-0.398311 1.58178,-0.05452 1.58178,1 0,0.883844 0.54205,1.494489 1.20455,1.356989 0.6625,-0.1375 1.225,0.298309 1.25,0.968465 0.025,0.670155 1.61148,2.525839 3.52551,4.123742 2.86362,2.390661 3.87083,2.727224 5.68623,1.900075 2.72807,-1.242994 4.86125,-0.493612 6.31217,2.217458 0.99028,1.850359 0.78274,2.13802 -1.93459,2.681486 -3.80714,0.761429 -3.82826,2.054251 -0.10024,6.135913 1.619,1.772573 2.654,3.222861 2.3,3.222861 -0.35399,0 -0.11113,0.5325 0.53971,1.183333 0.91111,0.911111 2.03067,0.335994 4.86666,-2.5 3.35946,-3.359456 5.35,-4.53191 5.35,-3.151214 0,2.46006 -3.40881,7.627928 -5.87156,8.901463 -3.74927,1.938824 -4.15093,1.939389 -6.90593,0.0097 z m 2.44416,-8.109963 c -1.52137,-1.52137 -0.43761,-3.456536 3.33333,-5.952031 3.28614,-2.174666 3.98869,-3.203369 3.93662,-5.764188 -0.0588,-2.89003 -0.12987,-2.951585 -0.97598,-0.844948 -1.33859,3.332814 -3.67207,3.805764 -5.80163,1.175873 -1.33395,-1.64736 -3.0431,-2.328312 -6.24766,-2.489159 -6.00553,-0.301437 -5.91135,-0.270787 -5.91135,-1.923696 0,-2.488185 3.53452,-3.535184 11.93426,-3.535184 9.88456,0 12.06574,1.514571 12.06574,8.378223 0,4.156763 -0.26599,4.561419 -5.25866,8 -5.55079,3.822978 -6.01352,4.016261 -7.07467,2.95511 z m -17.66667,-8.333333 c -0.90129,-0.58246 -1.02463,-0.975486 -0.30901,-0.984687 0.65504,-0.0084 1.46909,0.434687 1.80901,0.984687 0.76731,1.241525 0.42113,1.241525 -1.5,0 z M 12,19.704714 C 9.731473,17.436188 9.564565,16.386847 11.035184,13.638973 12.208424,11.446752 16.898531,11.003245 18.8,12.904714 20.709301,14.814015 20.195396,18.454445 17.777494,20.14801 14.917337,22.151342 14.40751,22.112224 12,19.704714 Z M 52.199997,8.5047142 c -1.99209,-1.9920956 -1.44996,-6.5958576 0.9265,-7.86769707 3.26018,-1.74479853 6.8735,0.277134 6.8735,3.84625827 0,1.5517913 -0.54,3.3614388 -1.2,4.0214388 -1.5425,1.5425008 -5.0575,1.5425008 -6.6,0 z"
     id="path5512"
     inkscape:connector-curvature="0" />
</svg>
