<?xml version="1.0" encoding="UTF-8" standalone="no"?>
<!-- Created with Inkscape (http://www.inkscape.org/) -->

<svg
   xmlns:dc="http://purl.org/dc/elements/1.1/"
   xmlns:cc="http://creativecommons.org/ns#"
   xmlns:rdf="http://www.w3.org/1999/02/22-rdf-syntax-ns#"
   xmlns:svg="http://www.w3.org/2000/svg"
   xmlns="http://www.w3.org/2000/svg"
   xmlns:sodipodi="http://sodipodi.sourceforge.net/DTD/sodipodi-0.dtd"
   xmlns:inkscape="http://www.inkscape.org/namespaces/inkscape"
   version="1.1"
   id="svg6644"
   width="34.655388"
   height="64.821625"
   viewBox="0 0 34.655388 64.821625"
   sodipodi:docname="3.svg"
   inkscape:version="0.92.2 (5c3e80d, 2017-08-06)">
  <metadata
     id="metadata6650">
    <rdf:RDF>
      <cc:Work
         rdf:about="">
        <dc:format>image/svg+xml</dc:format>
        <dc:type
           rdf:resource="http://purl.org/dc/dcmitype/StillImage" />
        <dc:title></dc:title>
      </cc:Work>
    </rdf:RDF>
  </metadata>
  <defs
     id="defs6648" />
  <sodipodi:namedview
     pagecolor="#ffffff"
     bordercolor="#666666"
     borderopacity="1"
     objecttolerance="10"
     gridtolerance="10"
     guidetolerance="10"
     inkscape:pageopacity="0"
     inkscape:pageshadow="2"
     inkscape:window-width="1024"
     inkscape:window-height="705"
     id="namedview6646"
     showgrid="false"
     fit-margin-top="0"
     fit-margin-left="0"
     fit-margin-right="0"
     fit-margin-bottom="0"
     inkscape:zoom="5.1346831"
     inkscape:cx="84.858842"
     inkscape:cy="26.14009"
     inkscape:window-x="-4"
     inkscape:window-y="-4"
     inkscape:window-maximized="1"
     inkscape:current-layer="svg6644" />
  <path
     style="fill:#333333;fill-opacity:1"
     d="m 16.356626,64.356782 c -0.38568,-0.38568 -0.701236,-4.676236 -0.701236,-9.53457 0,-8.79039 0.01234,-8.833333 2.537526,-8.833333 h 2.537526 l -0.287526,9.238573 c -0.230125,7.394213 -0.596716,9.297664 -1.83629,9.534569 -0.85182,0.162799 -1.86432,-0.01956 -2.25,-0.405239 z m 7.548764,-0.03018 c -0.868831,-0.350581 -1.25,-3.223392 -1.25,-9.421052 v -8.916667 h 3 3 v 8.3 c 0,9.353998 -1.033248,11.537461 -4.75,10.037719 z m -8.439793,-24.837719 0.408605,-3.5 h 6.390594 6.390594 v 3.5 c 0,3.222222 -0.238095,3.5 -3,3.5 -1.691228,0 -3.034441,-0.545322 -3.078947,-1.25 -0.06316,-1 -0.179825,-1 -0.583334,0 -0.277412,0.6875 -1.951525,1.25 -3.720252,1.25 -3.086438,0 -3.199421,-0.140863 -2.80726,-3.5 z m 0.189793,-6.5 c -0.05194,-1.239934 -1.230053,-1.152519 6,-1 7.560933,0.159499 6.86543,-0.39068 6.904075,1.259433 0.01532,0.654144 1.61468,0.766515 -7.05014,0.740567 -6.25459,-0.01873 -5.810343,0.04073 -5.853935,-1 z m -0.200096,-8.75 -0.299904,-5.75 -5.2710143,-2.824714 C 5.7093364,13.42678 4.0837494,11.794313 2.0662324,7.8129349 0.66531142,5.0483508 -0.23935458,2.1569719 0.05586242,1.3876486 1.0759974,-1.2707826 3.6225344,0.0043909 5.7498034,4.2388788 c 1.174284,2.3375 3.865187,6.1139832 5.1382116,7.2139832 1.273025,1.1 2.049606,3.175424 2.230678,4.275424 0.229065,1.39155 0.963873,0.853375 3.045248,1.065572 2.052152,0.209218 4.359227,1.779187 7.347514,5 4.061005,4.377002 3.987852,3.585976 -0.278454,-3.011003 -0.962502,-1.488313 -1.459657,-3.175813 -1.10479,-3.75 1.277662,-2.0673 3.547436,-0.970485 6.159329,2.976352 3.054577,4.615778 4.289472,4.662573 1.915906,0.0726 -1.376078,-2.66104 -1.394293,-3.092928 -0.13044,-3.092928 2.509849,0 4.582384,4.185379 4.582384,9.253891 0,5.118819 -1.75365,7.025377 -4.423707,4.809426 -0.957368,-0.794545 -1.602568,-0.829819 -2.046282,-0.111875 -0.356425,0.576707 -3.299031,1.048558 -6.539124,1.048558 h -5.891079 z m -0.133237,-9.916667 c -0.366667,-0.366666 -0.666667,-1.716666 -0.666667,-3 0,-1.7115369 0.565598,-2.3333332 2.122445,-2.3333332 1.836708,0 3.306037,-0.1730003 1.810205,0.3910006 -1.661499,0.6264656 -2.022276,2.7425626 -0.405086,3.9250816 1.856521,1.357521 1.85354,1.391787 -0.12108,1.391787 -1.113454,0 -2.373151,-0.0079 -2.739817,-0.374536 z m 5.054317,-5.2584146 c -0.620634,-0.1812676 0.862536,-0.074919 1.719999,-0.074919 0.857459,0 1.37589,0.4813821 1.559017,1 1.363278,3.8608186 -2.550962,2.9933206 -2.206884,2.6067206 1.429999,-1.60672 0.14418,-3.176556 -1.072132,-3.5318016 z M 25.791572,8.8458676 C 25.636614,6.9763243 23.631541,5.9888788 19.990269,5.9888788 c -3.556365,0 -2.406116,-2.4274139 1.327308,-2.8010654 3.570834,-0.357379 5.675985,1.7249582 5.050759,4.9960233 -0.24232,1.2677732 -0.501864,1.5656871 -0.576764,0.6620309 z"
     id="path6654"
     inkscape:connector-curvature="0"
     sodipodi:nodetypes="csscsscsscccssscccsscssssssssccssssssssssssssssscccssssscssssssssss" />
</svg>
