<?xml version="1.0" encoding="UTF-8" standalone="no"?>
<!-- Created with Inkscape (http://www.inkscape.org/) -->

<svg
   xmlns:dc="http://purl.org/dc/elements/1.1/"
   xmlns:cc="http://creativecommons.org/ns#"
   xmlns:rdf="http://www.w3.org/1999/02/22-rdf-syntax-ns#"
   xmlns:svg="http://www.w3.org/2000/svg"
   xmlns="http://www.w3.org/2000/svg"
   xmlns:sodipodi="http://sodipodi.sourceforge.net/DTD/sodipodi-0.dtd"
   xmlns:inkscape="http://www.inkscape.org/namespaces/inkscape"
   version="1.1"
   id="svg7199"
   width="81.587799"
   height="66"
   viewBox="0 0 81.587799 66"
   sodipodi:docname="4.svg"
   inkscape:version="0.92.2 (5c3e80d, 2017-08-06)">
  <metadata
     id="metadata7205">
    <rdf:RDF>
      <cc:Work
         rdf:about="">
        <dc:format>image/svg+xml</dc:format>
        <dc:type
           rdf:resource="http://purl.org/dc/dcmitype/StillImage" />
        <dc:title></dc:title>
      </cc:Work>
    </rdf:RDF>
  </metadata>
  <defs
     id="defs7203">
    <inkscape:perspective
       sodipodi:type="inkscape:persp3d"
       inkscape:vp_x="0 : 33 : 1"
       inkscape:vp_y="0 : 1000 : 0"
       inkscape:vp_z="82 : 33 : 1"
       inkscape:persp3d-origin="41 : 22 : 1"
       id="perspective7219" />
  </defs>
  <sodipodi:namedview
     pagecolor="#ffffff"
     bordercolor="#666666"
     borderopacity="1"
     objecttolerance="10"
     gridtolerance="10"
     guidetolerance="10"
     inkscape:pageopacity="0"
     inkscape:pageshadow="2"
     inkscape:window-width="1024"
     inkscape:window-height="705"
     id="namedview7201"
     showgrid="false"
     inkscape:measure-start="113.805,47.0645"
     inkscape:measure-end="97.7875,59.5228"
     inkscape:snap-bbox="false"
     inkscape:snap-nodes="false"
     fit-margin-top="0"
     fit-margin-left="0"
     fit-margin-right="0"
     fit-margin-bottom="0"
     inkscape:zoom="0.89393939"
     inkscape:cx="193.79343"
     inkscape:cy="142.37924"
     inkscape:window-x="-4"
     inkscape:window-y="-4"
     inkscape:window-maximized="1"
     inkscape:current-layer="svg7199" />
  <path
     style="fill:#333333;fill-opacity:1"
     d="M 7.423695,63.777494 C 6.4687512,62.41412 5.8669912,59.409745 5.8669912,56.005416 v -5.549572 l 8.2714878,-8.228517 8.271478,-8.228517 8.22852,8.271483 c 4.52568,4.549315 8.22851,9.002193 8.22851,9.895284 0,1.318066 0.61635,1.484791 3.27353,0.885501 4.96597,-1.120008 7.55146,-2.811961 9.21612,-6.031062 1.81549,-3.510774 1.89855,-6.53989 0.33918,-12.370193 -1.03142,-3.85635 -0.93527,-4.782798 0.80573,-7.763794 1.75581,-3.006373 8.35043,-7.825541 10.76884,-7.869579 0.49687,-0.009 -0.74063,1.580212 -2.75,3.531688 -4.06828,3.951064 -4.32262,5.303642 -2.1534,11.451862 3.58904,10.172414 0.90539,20.718047 -6.52338,25.634174 C 47.260467,62.667148 36.158527,66 30.638627,66 h -3.77164 v -6 -6 h -4.5 -4.5 v 6 6 h -4.443292 c -3.457958,0 -4.788508,-0.492859 -6,-2.222506 z M 0.53365818,46.333333 c -1.401783,-1.401782 -0.422696,-2.828188 7.58333282,-11.04796 11.844846,-12.161074 14.287706,-13.069577 20.679946,-7.690867 2.89308,2.434372 2.92505,2.437712 3.58004,0.374029 1.21569,-3.830299 3.95653,-1.920387 4.30786,3.001865 0.25368,3.554178 1.11164,5.314311 4.25,8.71903 4.29378,4.658208 4.76232,6.054775 2.34281,6.983229 -1.1031,0.423298 -4.39774,-2.186821 -10.76879,-8.531385 C 27.460157,33.113573 22.878487,29 22.327347,29 c -0.55113,0 -5.03329,4.05 -9.960356,9 -8.5487748,8.588568 -10.3263118,9.840354 -11.83333282,8.333333 z m 63.99999882,-28 c -1.26213,-1.262128 -0.0793,-2.30475 -0.84939,-4.592173 -0.81099,-2.408962 2.48486,-4.5801463 3.57572,-5.6374453 3.74652,-3.6312752 5.15209,-3.4922204 9.9229,1.392793 2.71347,2.7784323 2.27809,8.8481213 -1.0659,9.3230433 -1.83248,0.260254 -2.25,-0.157265 -2.25,-2.25 0,-2.074188 -0.48195,-2.569551 -2.5,-2.569551 -2,0 -2.5,0.5 -2.5,2.5 0,1.757576 -0.54444,2.5 -1.83333,2.5 -1.00833,0 -2.13333,-0.3 -2.5,-0.666667 z M 65.366987,5 c 2.70865,-2.75 5.3563,-5 5.88367,-5 0.52737,0 1.78178,0.7447444 2.78759,1.6549876 1.09416,0.9901975 1.82874,1.1910419 1.82874,0.5 0,-0.6352432 0.45,-1.1549876 1,-1.1549876 0.55,0 1,0.983497 1,2.1855488 0,1.2020518 0.97844,3.2270518 2.17432,4.4999998 3.96847,4.2242514 -0.46872,2.6213744 -4.67882,-1.6901596 l -3.9104,-4.0046109 -4.0804,4.0046109 c -2.24422,2.2025357 -4.72145,4.0046107 -5.50496,4.0046107 -0.7835,0 0.79161,-2.2500001 3.50026,-4.9999997 z"
     id="path7211"
     inkscape:connector-curvature="0"
     sodipodi:nodetypes="sscccsssssccsssscccccccssssccssccssscscsssssscsssssscscsss" />
  <path
     style="fill:#333333;fill-opacity:1;stroke-width:0.1977502"
     d="m 63.760286,16.441178 c -0.0109,-1.522677 -0.0198,-2.990972 -0.0198,-3.262878 0,-1.1326 -0.0788,-1.085022 1.86874,-1.127878 l 1.82919,-0.04025 -1.63144,-0.06662 c -1.10539,-0.04514 -1.63236,-0.143747 -1.63431,-0.305812 -0.004,-0.355011 3.87753,-4.0007994 5.21635,-4.8991917 1.48645,-0.9974603 2.51359,-1.0494963 3.9908,-0.2021798 1.44935,0.8313341 3.94911,3.2477931 4.71946,4.5621865 0.73455,1.253332 0.79382,1.72539 0.73906,5.886438 l -0.0293,2.22469 h -2.47188 -2.47188 v -1.986491 c 0,-1.827245 -0.0376,-2.024131 -0.46954,-2.456037 -0.84518,-0.84518 -3.38842,-0.838602 -4.09318,0.01059 -0.25438,0.306504 -0.47223,1.353188 -0.70638,3.393753 l -0.11913,1.038189 h -2.34851 -2.34852 z"
     id="path7797"
     inkscape:connector-curvature="0" />
</svg>
