<?xml version="1.0" encoding="UTF-8" standalone="no"?>
<!-- Created with Inkscape (http://www.inkscape.org/) -->

<svg
   xmlns:dc="http://purl.org/dc/elements/1.1/"
   xmlns:cc="http://creativecommons.org/ns#"
   xmlns:rdf="http://www.w3.org/1999/02/22-rdf-syntax-ns#"
   xmlns:svg="http://www.w3.org/2000/svg"
   xmlns="http://www.w3.org/2000/svg"
   xmlns:sodipodi="http://sodipodi.sourceforge.net/DTD/sodipodi-0.dtd"
   xmlns:inkscape="http://www.inkscape.org/namespaces/inkscape"
   version="1.1"
   id="svg8356"
   width="46"
   height="45.950249"
   viewBox="0 0 46 45.950249"
   sodipodi:docname="6.svg"
   inkscape:version="0.92.2 (5c3e80d, 2017-08-06)">
  <metadata
     id="metadata8362">
    <rdf:RDF>
      <cc:Work
         rdf:about="">
        <dc:format>image/svg+xml</dc:format>
        <dc:type
           rdf:resource="http://purl.org/dc/dcmitype/StillImage" />
        <dc:title></dc:title>
      </cc:Work>
    </rdf:RDF>
  </metadata>
  <defs
     id="defs8360" />
  <sodipodi:namedview
     pagecolor="#ffffff"
     bordercolor="#666666"
     borderopacity="1"
     objecttolerance="10"
     gridtolerance="10"
     guidetolerance="10"
     inkscape:pageopacity="0"
     inkscape:pageshadow="2"
     inkscape:window-width="1024"
     inkscape:window-height="705"
     id="namedview8358"
     showgrid="false"
     fit-margin-top="0"
     fit-margin-left="0"
     fit-margin-right="0"
     fit-margin-bottom="0"
     inkscape:zoom="2.5106383"
     inkscape:cx="54.69244"
     inkscape:cy="35.078386"
     inkscape:window-x="-4"
     inkscape:window-y="-4"
     inkscape:window-maximized="1"
     inkscape:current-layer="svg8356" />
  <path
     style="fill:#333333;fill-opacity:1"
     d="M 3.706312,45.476793 C 3.317841,45.088321 3,43.945481 3,42.937147 c 0,-1.533333 0.818182,-1.833333 5,-1.833333 5.474505,0 5.515308,-0.06789 3.898952,-6.487019 C 11.123217,31.536071 10.383912,30.402999 9.396716,30.781822 5.277152,32.362647 0,27.517007 0,22.153474 c 0,-1.724603 0.634362,-2.04966 4,-2.04966 2.793651,0 4.573016,-0.633333 5.8999997,-2.1 C 10.945,16.848814 12.1825,15.480468 12.65,14.963044 c 0.4675,-0.517423 1.692648,-1.519211 2.722551,-2.226195 1.326985,-0.910919 1.671753,-1.918085 1.18335,-3.4569074 C 15.643799,6.4061643 11.345882,5.32936 9.230591,7.4446516 7.850455,8.8247873 7.815865,9.3912366 8.979006,11.564587 10.160754,13.772703 9.405559,14.930427 7.811759,16.691556 5.951451,18.747173 -4.025966,20.296485 2.79661,16.529409 3.266992,16.269689 3.121208,15.415277 4.491573,14.517379 6.402477,13.265306 6.842558,12.324697 6.379905,10.48134 5.552941,7.1864506 7.5833,5.1038136 11.622445,5.1038136 14.890096,5.1038136 19,7.8892242 19,10.103814 c 0,0.55 0.701558,1 1.559017,1 0.857459,0 1.280902,0.45 0.940983,1 -0.366766,0.59344 0.795763,1 2.859424,1 2.895547,0 3.839428,-0.585682 5.640576,-3.5000004 2.148149,-3.4757778 4.300414,-4.4409704 5.516212,-2.4737686 0.989369,1.6008333 -4.751704,9.96925 -7.284688,10.618451 -1.247662,0.319775 -3.371544,0.370544 -4.719738,0.11282 -1.348194,-0.257724 -2.213322,-0.08359 -1.922507,0.386955 0.290815,0.470549 1.402197,0.855543 2.469738,0.855543 2.042737,0 2.303489,1.511028 1.035397,6 -0.583875,2.066883 -0.265392,2.685261 1.838322,3.56935 2.180407,0.916319 2.711545,2.06117 3.711489,8 0.954821,5.670843 0.920565,7.187695 -0.188454,8.344747 C 28.669428,46.881622 26,44.837785 26,41.606369 26,40.367464 25.727293,37.99028 25.393985,36.323739 24.859517,33.651397 24.319907,33.249028 20.823374,32.91558 l -3.964597,-0.378086 0.745623,3.53316 c 0.410092,1.943238 0.779367,4.88316 0.820611,6.53316 l 0.07499,3 -7.043688,0.289645 c -3.874028,0.159305 -7.361528,-0.02819 -7.75,-0.416666 z m 6.836393,-35.303881 c -0.316431,-0.5119964 -0.117988,-1.2135537 0.440983,-1.5590171 1.193375,-0.7375465 2.369066,-0.1001615 2.369066,1.2502067 0,1.2168054 -2.059375,1.5234264 -2.810049,0.3088104 z M 38.494716,9.1204626 C 38.926404,7.7603349 39.858254,5.1682311 37.702897,4.023005 L 34.090909,2.1038136 h 2.954546 c 1.625,0 2.954545,0.45 2.954545,1 0,0.55 1.35,1 3,1 2.533333,0 3,0.3888889 3,2.5 0,1.9838816 -0.503934,2.5 -2.440983,2.5 -1.342541,0 -2.719098,0.45 -3.059017,1.0000004 -1.113012,1.800891 -2.649784,1.047288 -2.005284,-0.9833514 z M 21.75,8.0237148 C 18.381145,6.0615372 20.38277,0 24.372276,0 c 0.823203,0 2.288528,0.41809756 3.30284,1.1344551 0.841149,0.594062 1.278842,1.4398849 1.62785,2.0000303 0,0 0.295229,2.6738079 -0.560941,3.8961864 -1.67404,2.3900268 -4.197933,2.6204518 -6.992025,0.993043 z"
     id="path8366"
     inkscape:connector-curvature="0"
     sodipodi:nodetypes="cssssssssssssssssssssssssscsssssssscsscsccsssssscsssssssssssss" />
</svg>
