<?xml version="1.0" encoding="UTF-8" standalone="no"?>
<!-- Creator: CorelDRAW X8 -->

<svg
   xmlns:dc="http://purl.org/dc/elements/1.1/"
   xmlns:cc="http://creativecommons.org/ns#"
   xmlns:rdf="http://www.w3.org/1999/02/22-rdf-syntax-ns#"
   xmlns:svg="http://www.w3.org/2000/svg"
   xmlns="http://www.w3.org/2000/svg"
   xmlns:sodipodi="http://sodipodi.sourceforge.net/DTD/sodipodi-0.dtd"
   xmlns:inkscape="http://www.inkscape.org/namespaces/inkscape"
   xml:space="preserve"
   width="111.14mm"
   height="22.610001mm"
   version="1.1"
   style="clip-rule:evenodd;fill-rule:evenodd;image-rendering:optimizeQuality;shape-rendering:geometricPrecision;text-rendering:geometricPrecision"
   viewBox="0 0 11114 2261.0001"
   id="svg3716"
   sodipodi:docname="logo-white.svg"
   inkscape:version="0.92.1 r15371"><metadata
     id="metadata3720"><rdf:RDF><cc:Work
         rdf:about=""><dc:format>image/svg+xml</dc:format><dc:type
           rdf:resource="http://purl.org/dc/dcmitype/StillImage" /></cc:Work></rdf:RDF></metadata><sodipodi:namedview
     pagecolor="#ffffff"
     bordercolor="#666666"
     borderopacity="1"
     objecttolerance="10"
     gridtolerance="10"
     guidetolerance="10"
     inkscape:pageopacity="0"
     inkscape:pageshadow="2"
     inkscape:window-width="2560"
     inkscape:window-height="1017"
     id="namedview3718"
     showgrid="false"
     inkscape:zoom="2.1368254"
     inkscape:cx="209.95276"
     inkscape:cy="37.039368"
     inkscape:window-x="-8"
     inkscape:window-y="-8"
     inkscape:window-maximized="1"
     inkscape:current-layer="svg3716" /><defs
     id="defs3682"><style
       type="text/css"
       id="style3680"><![CDATA[
    .fil2 {fill:#FEFEFE}
    .fil4 {fill:#EBECEC}
    .fil1 {fill:#6AA647}
    .fil0 {fill:#887037}
    .fil3 {fill:#FEFEFE;fill-rule:nonzero}
   ]]></style></defs><g
     id="Слой_x0020_1"
     transform="translate(-1845,-3969)"><metadata
       id="CorelCorpID_0Corel-Layer" /><path
       class="fil0"
       d="m 12501,4581 -11,110 h 414 l 12,-110 z m -729,0 -10,110 h 602 l 11,-110 z m -7253,-4 -10,110 h 601 l 11,-110 z m 725,1 -9,109 h 601 l 11,-109 z m 726,0 -10,110 h 601 l 11,-110 z m 725,1 -10,109 h 601 l 11,-109 z m 725,0 -10,110 h 602 l 11,-110 z m 726,0 -10,110 h 601 l 11,-110 z m 725,1 -10,109 h 601 l 11,-109 z m 725,0 -10,110 h 602 l 11,-110 z m 726,0 -10,110 h 601 l 11,-110 z m 725,1 -10,110 h 601 l 11,-110 z"
       id="path3685"
       inkscape:connector-curvature="0"
       style="fill:#887037" /><path
       class="fil0"
       d="m 1855,6120 -10,109 h 416 l 11,-109 z m 1266,0 -10,110 h 545 l 11,-110 z m -726,0 -10,110 h 602 l 11,-110 z"
       id="path3687"
       inkscape:connector-curvature="0"
       style="fill:#887037" /><path
       class="fil1"
       d="m 3454,4671 c -242,228 -254,610 -26,852 91,97 207,157 329,179 122,20 251,2 369,-58 296,-152 414,-516 262,-812 -88,-172 -249,-284 -426,-317 -178,-28 -367,23 -508,156 z"
       id="path3689"
       inkscape:connector-curvature="0"
       style="fill:#6aa647" /><path
       class="fil2"
       d="m 1982,4866 -106,1065 h 317 l 81,-804 h 395 l -82,805 321,2 106,-1068 c -344,-2 -687,0 -1032,0 z"
       id="path3691"
       inkscape:connector-curvature="0"
       style="fill:#fefefe" /><path
       class="fil2"
       d="m 8596,4866 -106,1065 h 317 l 80,-802 h 395 l -82,803 321,2 107,-1068 c -345,-2 -688,0 -1032,0 z"
       id="path3693"
       inkscape:connector-curvature="0"
       style="fill:#fefefe" /><path
       class="fil2"
       d="m 9652,5209 c -23,231 87,340 295,340 h 419 v 5 c -6,62 -41,93 -104,93 l -640,-1 -25,285 820,-1 c 147,-1 224,-92 236,-217 l 85,-847 h -294 l -40,379 h -391 c -52,0 -73,-39 -68,-100 l 25,-279 h -283 z"
       id="path3695"
       inkscape:connector-curvature="0"
       style="fill:#fefefe" /><path
       class="fil2"
       d="m 12780,5935 107,-1068 h -294 l -76,765 h -393 c -64,4 -89,-28 -77,-97 l 72,-667 h -283 l -73,728 c -12,231 87,344 295,339 z"
       id="path3697"
       inkscape:connector-curvature="0"
       style="fill:#fefefe" /><path
       class="fil2"
       d="m 11690,5168 h 22 l 30,-301 h -952 l -30,299 c 112,-2 226,-2 341,-2 l -81,768 h 318 l 76,-766 c 92,1 185,2 276,2 z"
       id="path3699"
       inkscape:connector-curvature="0"
       style="fill:#fefefe" /><path
       class="fil3"
       d="m 7027,4163 12,-84 h -289 l -12,84 h 98 l -38,280 h 92 l 39,-280 z m 296,27 c 12,-69 -33,-111 -102,-111 h -146 l -51,364 h 148 c 81,0 125,-36 143,-94 8,-28 9,-75 -38,-100 28,-13 43,-43 46,-59 z m -176,31 9,-64 h 54 c 46,0 35,64 -9,64 z m -19,141 10,-74 h 53 c 55,0 46,74 -10,74 z m 224,-39 c -12,83 57,125 133,125 79,0 156,-42 168,-125 l 18,-124 c 12,-83 -58,-125 -133,-125 -76,0 -156,41 -168,125 z m 110,-124 c 4,-27 36,-41 66,-41 30,0 55,14 51,41 l -18,121 c -4,29 -36,43 -66,43 -28,0 -55,-14 -51,-40 z m 425,-141 c 48,0 97,-30 106,-89 h -72 c -2,12 -12,21 -24,21 -13,0 -21,-9 -19,-21 h -71 c -9,59 32,89 80,89 z m 0,385 h 92 l 52,-364 h -85 l -114,155 -40,65 -2,-1 c 0,0 15,-54 16,-54 l 23,-165 h -93 l -51,364 h 87 l 108,-144 44,-70 h 2 c 0,0 -18,68 -19,68 z m 474,-364 h -83 l -179,364 h 99 l 33,-73 h 97 l 13,73 h 99 z m -98,209 39,-106 h 7 l 9,106 z m 325,-74 19,-135 h -92 l -52,364 h 93 l 18,-126 3,-4 76,130 h 116 l -118,-185 169,-179 h -114 z m 509,-51 12,-84 h -289 l -12,84 h 98 l -39,280 h 93 l 39,-280 z m 198,280 h 93 l 51,-364 h -84 l -115,155 -39,65 -2,-1 c 0,0 15,-54 15,-54 l 23,-165 h -92 l -51,364 h 86 l 108,-144 44,-70 h 3 c 0,0 -19,68 -19,68 z m 450,-253 c 12,-69 -33,-111 -102,-111 h -146 l -51,364 h 148 c 81,0 125,-36 143,-94 8,-28 9,-75 -38,-100 28,-13 43,-43 46,-59 z m -176,31 9,-64 h 54 c 46,0 35,64 -9,64 z m -19,141 10,-74 h 53 c 55,0 46,74 -10,74 z m 327,-56 h 105 l -19,137 h 92 l 51,-364 h -92 l -20,138 h -104 l 19,-138 h -92 l -51,364 h 92 z m 532,12 c 10,-69 -17,-115 -115,-115 h -55 l 18,-124 h -93 l -51,364 h 149 c 81,0 137,-54 147,-125 z m 176,-239 h -92 l -51,364 h 92 z m -368,283 12,-86 h 54 c 26,0 39,14 35,41 -3,23 -15,45 -46,45 z m 576,-304 c 48,0 97,-30 106,-89 h -71 c -2,12 -12,21 -25,21 -12,0 -20,-9 -18,-21 h -72 c -8,59 33,89 80,89 z m 0,385 h 93 l 51,-364 h -84 l -115,155 -39,65 -2,-1 c 0,0 15,-54 15,-54 l 23,-165 h -92 l -51,364 h 86 l 108,-144 44,-70 h 3 c 0,0 -19,68 -19,68 z m 253,-120 c -12,83 58,125 133,125 79,0 157,-42 169,-125 l 18,-124 c 11,-83 -58,-125 -134,-125 -75,0 -156,41 -168,125 z m 110,-124 c 4,-27 36,-41 66,-41 30,0 56,14 52,41 l -18,121 c -4,29 -37,43 -67,43 -27,0 -55,-14 -51,-40 z m 525,-36 13,-84 h -289 l -13,84 h 98 l -38,280 h 93 l 38,-280 z m 15,353 10,-73 h 159 l -10,73 h 92 l 21,-156 h -33 l -54,-281 h -91 l -131,281 h -33 l -22,156 z m 130,-253 14,97 h -86 l 40,-97 27,-81 h 2 z m 463,55 c 10,-69 -17,-115 -115,-115 h -55 l 18,-124 h -93 l -51,364 h 150 c 80,0 136,-54 146,-125 z m 176,-239 h -92 l -51,364 h 92 z m -368,283 12,-86 h 55 c 25,0 38,14 35,41 -4,23 -16,45 -47,45 z m 547,-159 -44,-124 h -108 l 77,182 -128,182 h 108 l 79,-124 47,124 h 106 l -76,-182 127,-182 h -107 z m 179,127 h 94 l 42,-253 h -105 z m -12,67 c -4,28 15,51 43,51 29,0 55,-23 59,-51 4,-29 -16,-52 -44,-52 -29,0 -54,23 -58,52 z"
       id="path3701"
       inkscape:connector-curvature="0"
       style="fill:#fefefe;fill-rule:nonzero" /><path
       class="fil2"
       d="m 7384,5567 258,367 h 423 l -311,-471 c -26,-40 -24,-78 7,-116 l 398,-482 h -419 l -317,349 c -47,44 -75,98 -84,163 l 51,-512 h -348 l -106,1065 h 348 l 53,-529 c -6,61 11,115 47,166 z"
       id="path3703"
       inkscape:connector-curvature="0"
       style="fill:#fefefe" /><path
       class="fil2"
       d="m 6870,5931 28,-277 -686,-1 c -45,-12 -71,-39 -76,-81 -11,-132 10,-265 61,-396 23,-34 58,-51 106,-52 h 647 l 26,-260 h -732 c -233,11 -367,189 -400,532 -34,344 58,522 274,535 z"
       id="path3705"
       inkscape:connector-curvature="0"
       style="fill:#fefefe" /><path
       class="fil2"
       d="m 5736,5935 107,-1068 h -294 l -76,765 h -393 c -64,4 -90,-28 -77,-97 l 71,-667 h -283 l -73,728 c -11,231 87,344 296,339 z"
       id="path3707"
       inkscape:connector-curvature="0"
       style="fill:#fefefe" /><path
       class="fil0"
       d="m 3613,5981 61,-531 h 143 l -60,526 z m 78,-648 88,-773 143,-4 -88,777 z"
       id="path3709"
       inkscape:connector-curvature="0"
       style="fill:#887037" /><path
       class="fil2"
       d="m 3939,4587 c 166,31 316,135 398,296 141,276 32,615 -244,757 -110,56 -231,73 -345,54 -113,-21 -221,-76 -306,-167 -213,-225 -202,-582 24,-794 131,-124 307,-172 473,-146 z m 272,-107 c -117,-69 -248,-104 -379,-104 -165,5 -326,66 -458,177 -104,86 -179,184 -221,297 -81,185 -84,394 -7,580 150,401 510,800 510,800 0,0 472,-255 748,-583 48,-53 87,-111 117,-174 96,-196 102,-426 11,-632 0,0 -10,-23 9,-38 l 353,-274 c 24,-19 44,-41 59,-64 15,-25 25,-52 29,-78 1,-13 1,-27 -1,-40 -3,-23 -13,-46 -29,-67 l -10,-13 c -60,-77 -169,-72 -255,-5 l -352,275 c -18,13 -35,3 -39,0 -23,-18 -48,-35 -73,-50 l -1,-1 -5,-3 z m -1062,956 c 9,22 4,11 0,0 z m 1251,217 c -16,17 -8,8 0,0 z"
       id="path3711"
       inkscape:connector-curvature="0"
       style="fill:#fefefe" /><path
       class="fil4"
       d="m 3509,5561 c -233,-192 -267,-538 -75,-771 111,-136 275,-204 439,-199 164,9 321,91 421,236 171,249 107,591 -142,761 -100,69 -214,100 -326,96 -113,-6 -224,-47 -317,-123 z m 817,-756 c -106,-156 -276,-244 -451,-255 -176,-5 -352,68 -472,215 -206,250 -169,621 81,827 100,82 219,125 340,132 120,4 243,-29 350,-102 267,-184 336,-550 152,-817 z"
       id="path3713"
       inkscape:connector-curvature="0"
       style="fill:#ebecec" /></g></svg>